<mxfile host="app.diagrams.net" modified="2023-11-08T15:57:26.308Z" agent="Mozilla/5.0 (Windows NT 10.0; Win64; x64) AppleWebKit/537.36 (KHTML, like Gecko) Chrome/119.0.0.0 Safari/537.36" etag="rAF2xjv2C8G0wyef-sLi" version="22.0.8" type="device">
  <diagram name="Página-1" id="ffL3nboK3TS9YAKDyHV8">
    <mxGraphModel dx="1434" dy="782" grid="1" gridSize="10" guides="1" tooltips="1" connect="1" arrows="1" fold="1" page="1" pageScale="1" pageWidth="827" pageHeight="1169" math="0" shadow="0">
      <root>
        <mxCell id="0" />
        <mxCell id="1" parent="0" />
        <mxCell id="G0tPQvNI7nx4SV493dxc-1" value="autor" style="rounded=0;whiteSpace=wrap;html=1;" parent="1" vertex="1">
          <mxGeometry x="34" y="415" width="120" height="60" as="geometry" />
        </mxCell>
        <mxCell id="G0tPQvNI7nx4SV493dxc-2" value="requisicao" style="rounded=0;whiteSpace=wrap;html=1;" parent="1" vertex="1">
          <mxGeometry x="674" y="415" width="120" height="60" as="geometry" />
        </mxCell>
        <mxCell id="G0tPQvNI7nx4SV493dxc-3" value="livro" style="rounded=0;whiteSpace=wrap;html=1;" parent="1" vertex="1">
          <mxGeometry x="384" y="415" width="90" height="60" as="geometry" />
        </mxCell>
        <mxCell id="G0tPQvNI7nx4SV493dxc-4" value="tem" style="rhombus;whiteSpace=wrap;html=1;" parent="1" vertex="1">
          <mxGeometry x="224" y="405" width="80" height="80" as="geometry" />
        </mxCell>
        <mxCell id="G0tPQvNI7nx4SV493dxc-5" value="" style="endArrow=none;html=1;rounded=0;exitX=0;exitY=0.5;exitDx=0;exitDy=0;entryX=1;entryY=0.5;entryDx=0;entryDy=0;" parent="1" source="G0tPQvNI7nx4SV493dxc-4" target="G0tPQvNI7nx4SV493dxc-1" edge="1">
          <mxGeometry width="50" height="50" relative="1" as="geometry">
            <mxPoint x="404" y="335" as="sourcePoint" />
            <mxPoint x="484" y="445" as="targetPoint" />
          </mxGeometry>
        </mxCell>
        <mxCell id="G0tPQvNI7nx4SV493dxc-6" value="" style="endArrow=none;html=1;rounded=0;exitX=1;exitY=0.5;exitDx=0;exitDy=0;" parent="1" source="G0tPQvNI7nx4SV493dxc-4" target="G0tPQvNI7nx4SV493dxc-3" edge="1">
          <mxGeometry width="50" height="50" relative="1" as="geometry">
            <mxPoint x="404" y="445" as="sourcePoint" />
            <mxPoint x="254" y="445" as="targetPoint" />
          </mxGeometry>
        </mxCell>
        <mxCell id="G0tPQvNI7nx4SV493dxc-7" value="N" style="text;html=1;align=center;verticalAlign=middle;resizable=0;points=[];autosize=1;strokeColor=none;fillColor=none;" parent="1" vertex="1">
          <mxGeometry x="164" y="415" width="30" height="30" as="geometry" />
        </mxCell>
        <mxCell id="G0tPQvNI7nx4SV493dxc-8" value="N" style="text;html=1;align=center;verticalAlign=middle;resizable=0;points=[];autosize=1;strokeColor=none;fillColor=none;" parent="1" vertex="1">
          <mxGeometry x="349" y="415" width="30" height="30" as="geometry" />
        </mxCell>
        <mxCell id="G0tPQvNI7nx4SV493dxc-9" value="ID_autor" style="text;html=1;align=left;verticalAlign=middle;resizable=0;points=[];autosize=1;strokeColor=none;fillColor=none;" parent="1" vertex="1">
          <mxGeometry x="44" y="495" width="70" height="30" as="geometry" />
        </mxCell>
        <mxCell id="G0tPQvNI7nx4SV493dxc-10" value="Nome" style="text;html=1;align=left;verticalAlign=middle;resizable=0;points=[];autosize=1;strokeColor=none;fillColor=none;" parent="1" vertex="1">
          <mxGeometry x="44" y="515" width="60" height="30" as="geometry" />
        </mxCell>
        <mxCell id="G0tPQvNI7nx4SV493dxc-11" value="ID_Livro" style="text;html=1;align=left;verticalAlign=middle;resizable=0;points=[];autosize=1;strokeColor=none;fillColor=none;" parent="1" vertex="1">
          <mxGeometry x="414" y="475" width="70" height="30" as="geometry" />
        </mxCell>
        <mxCell id="G0tPQvNI7nx4SV493dxc-12" value="título" style="text;html=1;align=left;verticalAlign=middle;resizable=0;points=[];autosize=1;strokeColor=none;fillColor=none;" parent="1" vertex="1">
          <mxGeometry x="414" y="495" width="50" height="30" as="geometry" />
        </mxCell>
        <mxCell id="G0tPQvNI7nx4SV493dxc-13" value="Ano_publicacao" style="text;html=1;align=left;verticalAlign=middle;resizable=0;points=[];autosize=1;strokeColor=none;fillColor=none;" parent="1" vertex="1">
          <mxGeometry x="414" y="515" width="110" height="30" as="geometry" />
        </mxCell>
        <mxCell id="G0tPQvNI7nx4SV493dxc-15" value="tem" style="rhombus;whiteSpace=wrap;html=1;" parent="1" vertex="1">
          <mxGeometry x="534" y="405" width="90" height="80" as="geometry" />
        </mxCell>
        <mxCell id="G0tPQvNI7nx4SV493dxc-16" value="" style="endArrow=none;html=1;rounded=0;exitX=1;exitY=0.5;exitDx=0;exitDy=0;entryX=0;entryY=0.5;entryDx=0;entryDy=0;" parent="1" source="G0tPQvNI7nx4SV493dxc-15" target="G0tPQvNI7nx4SV493dxc-2" edge="1">
          <mxGeometry width="50" height="50" relative="1" as="geometry">
            <mxPoint x="624" y="335" as="sourcePoint" />
            <mxPoint x="654" y="445" as="targetPoint" />
          </mxGeometry>
        </mxCell>
        <mxCell id="G0tPQvNI7nx4SV493dxc-17" value="" style="endArrow=none;html=1;rounded=0;exitX=0;exitY=0.5;exitDx=0;exitDy=0;entryX=1;entryY=0.5;entryDx=0;entryDy=0;" parent="1" source="G0tPQvNI7nx4SV493dxc-15" target="G0tPQvNI7nx4SV493dxc-3" edge="1">
          <mxGeometry width="50" height="50" relative="1" as="geometry">
            <mxPoint x="624" y="335" as="sourcePoint" />
            <mxPoint x="504" y="445" as="targetPoint" />
          </mxGeometry>
        </mxCell>
        <mxCell id="G0tPQvNI7nx4SV493dxc-19" value="Data_requisicao" style="text;html=1;align=left;verticalAlign=middle;resizable=0;points=[];autosize=1;strokeColor=none;fillColor=none;" parent="1" vertex="1">
          <mxGeometry x="704" y="365" width="110" height="30" as="geometry" />
        </mxCell>
        <mxCell id="G0tPQvNI7nx4SV493dxc-20" value="ID_Requisicao" style="text;html=1;align=left;verticalAlign=middle;resizable=0;points=[];autosize=1;strokeColor=none;fillColor=none;" parent="1" vertex="1">
          <mxGeometry x="704" y="344" width="100" height="30" as="geometry" />
        </mxCell>
        <mxCell id="G0tPQvNI7nx4SV493dxc-21" value="Data_Devolucao" style="text;html=1;align=left;verticalAlign=middle;resizable=0;points=[];autosize=1;strokeColor=none;fillColor=none;" parent="1" vertex="1">
          <mxGeometry x="704" y="385" width="110" height="30" as="geometry" />
        </mxCell>
        <mxCell id="G0tPQvNI7nx4SV493dxc-22" value="N" style="text;html=1;align=center;verticalAlign=middle;resizable=0;points=[];autosize=1;strokeColor=none;fillColor=none;" parent="1" vertex="1">
          <mxGeometry x="489" y="413" width="30" height="30" as="geometry" />
        </mxCell>
        <mxCell id="G0tPQvNI7nx4SV493dxc-23" value="N" style="text;html=1;align=center;verticalAlign=middle;resizable=0;points=[];autosize=1;strokeColor=none;fillColor=none;" parent="1" vertex="1">
          <mxGeometry x="639" y="423" width="30" height="30" as="geometry" />
        </mxCell>
        <mxCell id="G0tPQvNI7nx4SV493dxc-24" value="Nacionalidade" style="text;html=1;align=left;verticalAlign=middle;resizable=0;points=[];autosize=1;strokeColor=none;fillColor=none;" parent="1" vertex="1">
          <mxGeometry x="44" y="535" width="100" height="30" as="geometry" />
        </mxCell>
        <mxCell id="G0tPQvNI7nx4SV493dxc-25" value="Data_nascimento" style="text;html=1;align=left;verticalAlign=middle;resizable=0;points=[];autosize=1;strokeColor=none;fillColor=none;" parent="1" vertex="1">
          <mxGeometry x="44" y="555" width="120" height="30" as="geometry" />
        </mxCell>
        <mxCell id="G0tPQvNI7nx4SV493dxc-29" value="editora" style="rounded=0;whiteSpace=wrap;html=1;" parent="1" vertex="1">
          <mxGeometry x="364" y="190" width="120" height="60" as="geometry" />
        </mxCell>
        <mxCell id="G0tPQvNI7nx4SV493dxc-30" value="Nome" style="text;html=1;align=left;verticalAlign=middle;resizable=0;points=[];autosize=1;strokeColor=none;fillColor=none;" parent="1" vertex="1">
          <mxGeometry x="394" y="90" width="60" height="30" as="geometry" />
        </mxCell>
        <mxCell id="G0tPQvNI7nx4SV493dxc-31" value="Morada" style="text;html=1;align=left;verticalAlign=middle;resizable=0;points=[];autosize=1;strokeColor=none;fillColor=none;" parent="1" vertex="1">
          <mxGeometry x="394" y="110" width="60" height="30" as="geometry" />
        </mxCell>
        <mxCell id="G0tPQvNI7nx4SV493dxc-32" value="ID_editora" style="text;html=1;align=left;verticalAlign=middle;resizable=0;points=[];autosize=1;strokeColor=none;fillColor=none;" parent="1" vertex="1">
          <mxGeometry x="394" y="70" width="80" height="30" as="geometry" />
        </mxCell>
        <mxCell id="G0tPQvNI7nx4SV493dxc-33" value="Telefone" style="text;html=1;align=left;verticalAlign=middle;resizable=0;points=[];autosize=1;strokeColor=none;fillColor=none;" parent="1" vertex="1">
          <mxGeometry x="394" y="129" width="70" height="30" as="geometry" />
        </mxCell>
        <mxCell id="G0tPQvNI7nx4SV493dxc-34" value="NIF" style="text;html=1;align=left;verticalAlign=middle;resizable=0;points=[];autosize=1;strokeColor=none;fillColor=none;" parent="1" vertex="1">
          <mxGeometry x="394" y="149" width="40" height="30" as="geometry" />
        </mxCell>
        <mxCell id="G0tPQvNI7nx4SV493dxc-35" value="utilizador" style="rounded=0;whiteSpace=wrap;html=1;" parent="1" vertex="1">
          <mxGeometry x="684" y="640" width="120" height="60" as="geometry" />
        </mxCell>
        <mxCell id="G0tPQvNI7nx4SV493dxc-36" value="Nome" style="text;html=1;align=left;verticalAlign=middle;resizable=0;points=[];autosize=1;strokeColor=none;fillColor=none;" parent="1" vertex="1">
          <mxGeometry x="704" y="730" width="60" height="30" as="geometry" />
        </mxCell>
        <mxCell id="G0tPQvNI7nx4SV493dxc-37" value="CC" style="text;html=1;align=left;verticalAlign=middle;resizable=0;points=[];autosize=1;strokeColor=none;fillColor=none;" parent="1" vertex="1">
          <mxGeometry x="704" y="750" width="40" height="30" as="geometry" />
        </mxCell>
        <mxCell id="G0tPQvNI7nx4SV493dxc-38" value="ID_utilizador" style="text;html=1;align=left;verticalAlign=middle;resizable=0;points=[];autosize=1;strokeColor=none;fillColor=none;" parent="1" vertex="1">
          <mxGeometry x="704" y="710" width="90" height="30" as="geometry" />
        </mxCell>
        <mxCell id="G0tPQvNI7nx4SV493dxc-39" value="Telefone" style="text;html=1;align=left;verticalAlign=middle;resizable=0;points=[];autosize=1;strokeColor=none;fillColor=none;" parent="1" vertex="1">
          <mxGeometry x="704" y="770" width="70" height="30" as="geometry" />
        </mxCell>
        <mxCell id="G0tPQvNI7nx4SV493dxc-40" value="Email" style="text;html=1;align=left;verticalAlign=middle;resizable=0;points=[];autosize=1;strokeColor=none;fillColor=none;" parent="1" vertex="1">
          <mxGeometry x="704" y="789" width="50" height="30" as="geometry" />
        </mxCell>
        <mxCell id="G0tPQvNI7nx4SV493dxc-41" value="tem" style="rhombus;whiteSpace=wrap;html=1;" parent="1" vertex="1">
          <mxGeometry x="694" y="515" width="80" height="80" as="geometry" />
        </mxCell>
        <mxCell id="G0tPQvNI7nx4SV493dxc-42" value="" style="endArrow=none;html=1;rounded=0;entryX=0.5;entryY=1;entryDx=0;entryDy=0;exitX=0.5;exitY=0;exitDx=0;exitDy=0;" parent="1" source="G0tPQvNI7nx4SV493dxc-41" target="G0tPQvNI7nx4SV493dxc-2" edge="1">
          <mxGeometry width="50" height="50" relative="1" as="geometry">
            <mxPoint x="200" y="630" as="sourcePoint" />
            <mxPoint x="250" y="580" as="targetPoint" />
          </mxGeometry>
        </mxCell>
        <mxCell id="G0tPQvNI7nx4SV493dxc-43" value="" style="endArrow=none;html=1;rounded=0;entryX=0.5;entryY=1;entryDx=0;entryDy=0;exitX=0.429;exitY=-0.033;exitDx=0;exitDy=0;exitPerimeter=0;" parent="1" source="G0tPQvNI7nx4SV493dxc-35" target="G0tPQvNI7nx4SV493dxc-41" edge="1">
          <mxGeometry width="50" height="50" relative="1" as="geometry">
            <mxPoint x="200" y="630" as="sourcePoint" />
            <mxPoint x="250" y="580" as="targetPoint" />
          </mxGeometry>
        </mxCell>
        <mxCell id="G0tPQvNI7nx4SV493dxc-44" value="1" style="text;html=1;align=center;verticalAlign=middle;resizable=0;points=[];autosize=1;strokeColor=none;fillColor=none;" parent="1" vertex="1">
          <mxGeometry x="735" y="608" width="30" height="30" as="geometry" />
        </mxCell>
        <mxCell id="G0tPQvNI7nx4SV493dxc-45" value="N" style="text;html=1;align=center;verticalAlign=middle;resizable=0;points=[];autosize=1;strokeColor=none;fillColor=none;" parent="1" vertex="1">
          <mxGeometry x="735" y="477" width="30" height="30" as="geometry" />
        </mxCell>
        <mxCell id="G0tPQvNI7nx4SV493dxc-46" value="tem" style="rhombus;whiteSpace=wrap;html=1;" parent="1" vertex="1">
          <mxGeometry x="384" y="284" width="80" height="80" as="geometry" />
        </mxCell>
        <mxCell id="G0tPQvNI7nx4SV493dxc-47" value="" style="endArrow=none;html=1;rounded=0;entryX=-0.017;entryY=-0.183;entryDx=0;entryDy=0;exitX=0.5;exitY=0;exitDx=0;exitDy=0;entryPerimeter=0;" parent="1" source="G0tPQvNI7nx4SV493dxc-46" target="G0tPQvNI7nx4SV493dxc-50" edge="1">
          <mxGeometry width="50" height="50" relative="1" as="geometry">
            <mxPoint x="-110" y="407" as="sourcePoint" />
            <mxPoint x="424" y="252" as="targetPoint" />
          </mxGeometry>
        </mxCell>
        <mxCell id="G0tPQvNI7nx4SV493dxc-48" value="" style="endArrow=none;html=1;rounded=0;entryX=0.5;entryY=1;entryDx=0;entryDy=0;exitX=0.429;exitY=-0.033;exitDx=0;exitDy=0;exitPerimeter=0;" parent="1" target="G0tPQvNI7nx4SV493dxc-46" edge="1">
          <mxGeometry width="50" height="50" relative="1" as="geometry">
            <mxPoint x="425" y="415" as="sourcePoint" />
            <mxPoint x="-60" y="357" as="targetPoint" />
          </mxGeometry>
        </mxCell>
        <mxCell id="G0tPQvNI7nx4SV493dxc-49" value="N" style="text;html=1;align=center;verticalAlign=middle;resizable=0;points=[];autosize=1;strokeColor=none;fillColor=none;" parent="1" vertex="1">
          <mxGeometry x="425" y="385" width="30" height="30" as="geometry" />
        </mxCell>
        <mxCell id="G0tPQvNI7nx4SV493dxc-50" value="1" style="text;html=1;align=center;verticalAlign=middle;resizable=0;points=[];autosize=1;strokeColor=none;fillColor=none;" parent="1" vertex="1">
          <mxGeometry x="425" y="254" width="30" height="30" as="geometry" />
        </mxCell>
      </root>
    </mxGraphModel>
  </diagram>
</mxfile>
